<svg width="2428" height="1549" viewBox="0 0 2428 1549" fill="none" xmlns="http://www.w3.org/2000/svg">
<path d="M1 156.5C521.8 298.9 914 241.002 907.5 84C904.806 18.9313 934.9 -20.7 1064.5 162.5C1226.5 391.5 1388.24 -91.9995 1431.24 18.0005C1474.24 128 1763.5 227.502 1579 241.002C1394.5 254.502 1390.5 293.5 1697 397.5C2003.5 501.5 1838.5 215.5 1792.5 290C1746.5 364.5 1958.16 575.269 2114 457.002C2255 350 2489 980.5 2412.5 587.5C2365.63 346.702 2094 1124 1640.5 1114C1552.5 1116.17 1418 1057 1371.5 1101.5C1318.68 1152.04 1482 1250.5 1392.5 1279.5C1303 1308.5 1194.5 1210.5 1242 1155C1289.5 1099.5 1213.5 986 1041.5 1229C869.5 1472 1044 806 877.5 1070.5C711 1335 251 1435.5 357 1279.5C441.8 1154.7 186.333 1406.83 48 1548.5" stroke="black"/>
</svg>
