<svg width="1920" height="604" viewBox="0 0 1920 604" fill="none" xmlns="http://www.w3.org/2000/svg">
<path 
d="M0 170.14H243.172V2L320.643 79.4376L398.114 2V170.14H390.224V23.8689L320.643 93.4193L293.744 66.5313H410.309V170.14H516.473V66.5313L451.913 2H464.467L516.473 53.9835L568.478 2H580.314L510.017 72.2674V90.5513H524.722V170.14H696.521V338.28H605.421V326.449H795.511V262.276H605.421V180.895H795.511V193.801H615.463V273.748H804.836V338.28H828.867V273.748H932.52V262.276H828.867V193.801H932.52V180.895H842.496V338.28H968.745V180.895H985.96H1085.31V273.748H998.872V262.276H1072.04V193.801H985.96V338.28H998.872V282.734H1072.04V338.28H1168.3L1109.79 180.895H1122.29L1161.8 282.734L1199.81 180.895H1212.82L1161.8 306.253H1141.3V326.449H1242.32V338.28H1257.33V180.895H1242.32V306.253H1272.83V338.28H1456.38V326.449H1336.85V193.801H1456.38V180.895H1324.84V314.26H1484.89V180.895H1592.41V193.801H1504.39V262.276H1592.41V273.748H1504.39V326.449H1592.41V338.28H1524.9V314.26H1694.94V338.28H1637.43V326.449H1765.46V273.748H1637.43V180.895H1765.46V193.801H1627.42V262.276H1754.46V314.26H1845.48V548.455H1920V519.931H1876.49V603H1810.47V404.835H510.017V436.862H541.141V240.198H230.06V2H214.056V157.629H0" stroke="black"/>
</svg>
